<?xml version="1.0" standalone="no"?>
<!DOCTYPE svg PUBLIC "-//W3C//DTD SVG 20010904//EN"
 "http://www.w3.org/TR/2001/REC-SVG-20010904/DTD/svg10.dtd">
<svg version="1.0" xmlns="http://www.w3.org/2000/svg"
 width="1024.000000pt" height="1024.000000pt" viewBox="0 0 1024.000000 1024.000000"
 preserveAspectRatio="xMidYMid meet">

<g transform="translate(0.000000,1024.000000) scale(0.100000,-0.100000)"
fill="#000000" stroke="none">
<path d="M5035 8600 c-109 -23 -190 -67 -259 -139 -55 -59 -81 -114 -101 -207
-7 -36 -16 -68 -18 -71 -3 -2 -463 -6 -1022 -7 l-1016 -3 -20 40 c-32 62 -111
135 -187 170 -117 55 -306 50 -426 -10 -64 -33 -146 -111 -178 -170 -69 -127
-77 -285 -21 -403 50 -106 146 -200 234 -229 l36 -11 6 -242 c9 -309 9 -894 0
-1355 l-6 -361 -49 -4 c-111 -11 -284 -132 -337 -236 -31 -60 -53 -184 -46
-252 13 -113 47 -181 140 -281 27 -30 62 -73 78 -97 31 -49 80 -95 85 -81 7
17 32 9 32 -11 0 -12 7 -20 16 -20 8 0 22 -7 30 -15 21 -21 31 -19 38 8 10 39
6 66 -11 76 -16 9 -16 10 -2 11 9 0 20 -8 25 -17 4 -10 10 -466 12 -1015 l4
-996 -34 -7 c-53 -11 -111 -50 -171 -114 -165 -179 -164 -412 5 -596 57 -62
98 -91 168 -119 25 -10 56 -23 70 -28 14 -6 43 -10 65 -9 33 1 37 0 22 -10
-10 -6 -27 -9 -38 -6 -26 7 -33 -8 -13 -27 8 -9 12 -20 9 -26 -6 -10 10 -13
58 -10 21 1 27 -3 27 -18 0 -11 -9 -22 -20 -25 -11 -3 -20 0 -20 6 0 6 -3 7
-7 3 -10 -10 86 -105 129 -127 39 -20 78 -27 43 -7 -37 20 -54 40 -48 56 5 12
8 11 14 -6 12 -32 29 -27 29 8 0 23 4 30 20 30 13 0 20 -7 20 -20 0 -17 7 -20
40 -20 33 0 40 3 40 20 0 18 7 20 60 20 53 0 60 2 60 20 0 17 7 20 40 20 l40
0 0 40 c0 33 -3 40 -20 40 -17 0 -20 7 -20 40 l0 40 40 0 c33 0 40 3 40 20 0
11 -4 20 -10 20 -5 0 -10 9 -10 20 0 11 -4 20 -10 20 -5 0 -10 16 -10 35 0 30
3 35 23 35 18 0 19 2 7 10 -23 14 -111 10 -117 -6 -3 -8 -9 -14 -14 -14 -5 0
-2 11 7 24 l16 25 1011 1 c556 0 1020 3 1033 6 19 5 22 1 28 -43 15 -102 88
-207 199 -286 51 -36 75 -46 134 -55 39 -7 96 -12 125 -12 69 0 98 -9 98 -28
0 -13 -3 -12 -20 3 -11 10 -23 15 -27 12 -3 -4 -1 -7 5 -7 7 0 12 -13 12 -30
0 -23 4 -30 20 -30 11 0 20 -4 20 -10 0 -5 9 -10 20 -10 11 0 20 -4 20 -10 0
-6 47 -10 120 -10 l120 0 0 80 c0 73 -2 80 -20 80 -13 0 -20 7 -20 20 0 11 -4
21 -10 21 -5 1 -14 3 -20 4 -5 1 -16 3 -22 4 -9 1 -8 4 2 11 11 7 11 10 2 10
-7 0 1 15 17 33 43 45 98 153 106 207 l7 45 1040 -2 1040 -3 29 -39 c33 -46
114 -113 173 -143 23 -11 50 -32 61 -45 43 -54 55 -66 55 -55 0 7 9 12 20 12
11 0 20 -4 20 -10 0 -5 18 -10 40 -10 38 0 40 -2 40 -30 0 -28 2 -30 40 -30
33 0 40 -3 40 -20 0 -18 7 -20 60 -20 53 0 60 -2 60 -20 0 -13 7 -20 20 -20
17 0 20 -7 20 -44 0 -34 4 -46 18 -49 16 -4 16 -5 0 -6 -10 0 -18 -6 -18 -12
0 -20 111 -5 175 24 64 30 170 105 161 115 -3 3 -17 -5 -30 -17 -14 -13 -30
-21 -37 -19 -8 3 -5 11 10 25 14 13 19 23 12 28 -7 4 -11 50 -11 121 0 107 1
114 20 114 13 0 20 7 20 20 0 13 -7 20 -20 20 -18 0 -20 7 -20 80 0 72 -2 80
-19 80 -12 0 -21 9 -25 25 -10 38 -34 31 -42 -12 -6 -31 -8 -34 -15 -18 -8 19
-8 19 -15 -2 -3 -13 -10 -23 -15 -23 -5 0 -6 -6 -3 -13 3 -8 -21 -40 -53 -72
-32 -32 -57 -64 -55 -72 4 -17 -4 -17 -11 1 -4 9 10 31 33 53 86 87 138 234
127 358 -6 62 -44 153 -96 230 -13 19 -21 46 -21 73 0 44 -9 52 -30 27 -17
-20 -36 -19 -52 3 -15 20 -45 42 -34 24 3 -6 -11 -4 -33 5 -37 14 -39 17 -45
72 -3 31 -5 473 -4 983 2 896 2 927 20 908 10 -10 18 -27 19 -37 0 -11 3 -13
6 -5 8 20 43 14 43 -8 0 -30 29 -24 36 7 7 25 8 25 15 8 7 -19 8 -18 8 3 1 12
6 22 11 22 6 0 10 9 10 20 0 16 7 20 30 20 17 0 30 5 30 10 0 6 14 10 30 10
23 0 30 -4 30 -20 0 -22 15 -27 24 -7 5 10 7 10 12 0 4 -9 39 -13 125 -13
l119 0 0 80 0 80 -40 0 c-33 0 -40 3 -40 20 0 13 -7 20 -20 20 -13 0 -20 7
-20 19 0 18 -43 35 -72 27 -7 -1 -10 -1 -5 1 4 3 5 8 2 12 -2 5 2 17 10 27 13
16 14 17 9 1 -4 -10 -1 -17 6 -17 8 0 10 10 7 27 -3 17 3 45 16 73 19 39 22
63 22 177 0 73 -4 133 -9 132 -4 0 -26 27 -47 60 -22 33 -55 75 -74 94 -33 33
-35 39 -36 109 -2 103 -8 123 -41 125 -22 1 -28 -3 -28 -18 0 -16 -7 -19 -50
-19 -36 0 -50 -4 -50 -14 0 -8 -11 -17 -25 -20 -14 -4 -25 -11 -25 -16 0 -6
-13 -10 -30 -10 l-30 0 0 963 c0 535 4 968 9 976 5 8 19 12 35 9 16 -3 26 -1
26 7 0 6 17 19 37 29 75 35 175 175 201 278 34 134 -21 313 -131 429 -59 62
-111 90 -207 115 -174 44 -383 -35 -488 -184 l-43 -61 -802 3 c-441 2 -907 4
-1034 5 l-233 1 0 28 c0 46 -30 133 -64 187 -102 157 -288 240 -461 205z m163
-166 c66 -22 117 -65 148 -126 27 -54 25 -88 -7 -88 -11 0 -19 -7 -19 -16 0
-8 -11 -30 -24 -47 -14 -18 -28 -44 -31 -59 -4 -16 -11 -28 -16 -28 -5 0 -9
-4 -9 -8 0 -5 -27 -37 -60 -72 -47 -49 -58 -66 -49 -77 21 -25 -79 -16 -141
13 -105 49 -170 139 -170 236 0 69 53 184 102 221 86 66 178 83 276 51z m2947
-186 c48 -18 109 -63 127 -95 l17 -29 -52 -60 c-49 -57 -53 -59 -77 -47 -22
12 -52 11 -101 -3 -9 -2 -21 -15 -27 -28 -19 -42 34 -106 90 -106 14 0 18 -3
11 -8 -13 -8 -46 -81 -57 -125 -5 -20 -2 -29 9 -33 25 -10 6 -24 -33 -24 -54
0 -158 39 -202 77 -74 64 -117 204 -91 299 21 78 127 170 226 195 36 9 118 2
160 -13z m-5806 -19 c60 -30 93 -63 125 -126 18 -36 13 -56 -29 -123 -14 -22
-28 -62 -32 -88 -9 -67 -28 -92 -69 -92 -28 0 -34 -4 -34 -21 0 -19 4 -21 35
-16 20 3 35 2 35 -4 0 -6 -4 -7 -10 -4 -5 3 -10 1 -10 -5 0 -7 -7 -9 -16 -6
-8 3 -12 2 -9 -4 8 -13 -42 -37 -97 -45 -31 -5 -64 -2 -101 9 -137 40 -217
143 -217 280 0 66 3 78 39 137 45 74 69 95 142 120 86 29 173 25 248 -12z
m2382 -278 c35 -61 115 -131 193 -170 65 -31 167 -61 210 -61 27 0 100 -66 90
-82 -8 -13 43 -29 131 -42 70 -11 11 -13 -479 -19 -308 -4 -562 -9 -564 -12
-3 -3 3 -23 13 -46 14 -31 36 -52 87 -86 78 -52 175 -154 209 -221 24 -47 24
-49 31 -522 4 -261 5 -682 2 -935 l-6 -460 -150 -148 c-136 -135 -191 -207
-173 -225 12 -12 572 -23 880 -18 352 6 425 12 425 33 0 23 -29 71 -67 114
-42 47 -41 36 -51 367 l-7 223 35 -38 c46 -51 234 -291 290 -370 51 -73 51
-74 -37 -175 -49 -56 -82 -122 -69 -135 9 -10 743 -21 1009 -15 252 5 257 5
257 26 0 32 -33 79 -85 122 -186 152 -252 222 -436 462 -52 68 -129 169 -171
225 -43 56 -78 104 -78 107 0 3 25 18 55 33 30 15 55 31 55 37 0 5 7 10 15 10
9 0 18 7 21 15 4 8 10 12 15 10 5 -3 18 6 31 20 12 14 27 25 33 25 12 0 45 36
45 50 0 5 9 15 20 22 11 7 20 18 20 25 0 7 4 12 9 10 14 -3 91 84 84 96 -3 6
-2 7 4 4 12 -7 67 83 100 163 71 177 19 435 -118 580 -27 28 -62 81 -79 117
-138 292 -399 473 -725 503 -60 5 -148 11 -195 11 -67 1 -77 3 -47 9 37 7 100
54 67 50 -8 -1 -26 -2 -39 -1 -23 1 -24 2 -6 21 10 11 24 20 32 20 7 0 13 5
13 10 0 6 9 10 20 10 16 0 20 7 20 30 0 25 4 30 23 30 13 0 27 4 33 10 5 5 19
11 31 13 31 4 41 17 15 17 -15 0 -22 6 -22 20 0 11 5 20 10 20 6 0 10 -4 10
-10 0 -5 5 -10 10 -10 6 0 10 9 10 20 0 11 5 20 10 20 6 0 10 -4 10 -10 0 -17
25 -11 37 10 7 10 10 27 6 36 -5 13 -2 15 15 9 19 -5 22 -2 22 22 0 22 2 25
10 13 9 -13 14 -7 11 13 0 4 3 7 8 7 5 0 13 9 16 20 6 20 15 20 835 20 l828 0
4 -62 c7 -120 91 -249 222 -345 33 -23 67 -43 76 -44 10 0 9 -3 -5 -8 -18 -8
-16 -12 25 -53 25 -24 58 -54 73 -65 l28 -22 2 -899 2 -900 -48 -17 c-60 -22
-145 -98 -179 -162 -15 -27 -37 -84 -49 -128 -27 -99 -23 -219 11 -307 41
-110 151 -231 222 -245 15 -3 32 -11 38 -18 7 -8 9 -342 8 -1021 l-3 -1009
-48 -7 c-27 -4 -65 -13 -85 -21 l-37 -15 3 54 c2 30 -2 92 -8 137 -7 45 -12
89 -11 97 7 77 19 1222 15 1378 l-6 202 -30 0 c-64 0 -88 -41 -88 -150 0 -30
-4 -60 -8 -66 -5 -8 -547 -11 -1994 -10 l-1988 1 0 445 c0 247 -4 451 -9 459
-14 22 -109 21 -125 -1 -10 -14 -12 -305 -9 -1429 2 -776 6 -1415 9 -1420 6
-11 197 -11 577 -2 251 6 280 8 299 25 12 10 23 28 25 40 2 12 8 27 14 35 24
28 -41 33 -411 33 l-368 0 -2 840 -1 840 128 -1 c106 0 249 -14 192 -18 -27
-2 -116 -93 -138 -141 -25 -56 -28 -148 -5 -193 42 -84 87 -136 139 -161 28
-15 57 -26 63 -26 8 0 12 -33 12 -107 0 -121 6 -139 77 -222 l43 -49 -63 -6
c-34 -4 -107 -6 -162 -5 -111 2 -141 -7 -151 -46 -3 -14 -4 -78 -2 -142 4
-131 22 -187 93 -283 53 -72 218 -190 265 -190 6 0 8 5 5 10 -4 6 10 10 34 10
22 0 42 3 44 8 5 7 126 -1 185 -13 28 -6 32 -5 32 13 0 16 8 21 38 26 54 8
771 0 810 -9 28 -7 33 -11 28 -30 -5 -20 -1 -23 27 -28 17 -2 34 -1 35 4 2 5
26 9 54 9 38 0 49 -3 45 -13 -3 -8 0 -14 6 -15 44 -7 693 -16 695 -10 6 13 52
9 53 -4 0 -10 2 -10 6 0 2 6 19 12 36 12 57 0 153 46 119 58 -6 2 -12 8 -12
14 0 6 45 9 128 7 70 -2 132 0 138 4 7 4 150 7 318 6 261 0 308 -2 313 -15 3
-9 9 -11 17 -5 6 5 45 11 86 14 71 6 73 6 36 -7 -31 -10 -36 -14 -22 -19 10
-4 29 -7 42 -7 15 0 24 -6 24 -15 0 -22 52 -19 80 5 23 20 70 28 70 11 0 -9
50 6 89 28 14 7 -6 -14 -42 -49 -45 -41 -77 -82 -97 -124 -28 -58 -59 -174
-60 -224 l0 -23 -1012 1 -1012 2 -33 68 c-40 83 -115 155 -210 202 -58 28 -78
33 -163 36 -108 5 -180 -11 -262 -55 -64 -35 -150 -127 -185 -197 l-27 -56
-940 2 -940 3 -29 57 c-31 62 -43 67 -45 18 0 -17 -5 -37 -11 -44 -6 -7 -8
-16 -4 -19 3 -4 -1 -7 -9 -7 -11 0 -17 16 -22 61 -7 76 -39 156 -97 245 l-45
69 6 1000 c3 662 9 1006 16 1018 6 11 7 41 3 80 -12 89 -2 157 22 157 12 0 19
7 19 20 0 13 7 20 20 20 11 0 20 5 20 10 0 6 9 10 20 10 11 0 20 6 21 13 0 6
5 3 10 -8 15 -32 0 123 -17 180 -18 60 -80 155 -111 171 -13 6 -39 43 -59 84
-45 89 -145 198 -211 230 l-48 22 1 802 c2 1016 1 947 18 940 45 -17 350 112
408 173 35 37 99 144 92 154 -3 5 0 9 6 9 8 0 10 9 6 25 -4 17 -2 24 6 23 7
-2 15 14 20 37 4 22 12 63 18 90 5 28 13 73 16 102 5 35 12 53 22 55 9 2 425
2 926 0 l910 -3 27 -48z m3232 -418 c-7 -2 -19 -2 -25 0 -7 3 -2 5 12 5 14 0
19 -2 13 -5z m-3003 -120 c6 -6 9 -2221 3 -2290 l-5 -53 -154 0 c-85 0 -154 3
-154 6 0 3 23 29 51 57 28 29 61 72 73 97 21 45 21 46 21 1020 l0 975 -23 47
c-13 26 -49 71 -81 100 l-57 53 161 -4 c88 -1 162 -5 165 -8z m955 -17 c143
-40 277 -126 364 -233 89 -109 159 -329 148 -463 -19 -229 -203 -481 -394
-540 -55 -17 -93 -20 -247 -20 -101 0 -264 -3 -363 -7 l-180 -6 -5 -91 c-3
-50 -3 -257 1 -461 7 -406 6 -396 73 -474 16 -18 28 -34 26 -35 -2 -1 -55 0
-119 2 l-116 4 -8 192 c-6 168 10 1021 20 1053 3 9 86 13 322 15 307 3 320 4
368 26 79 36 160 123 210 224 50 101 61 161 46 244 -25 137 -117 260 -236 315
-57 27 -81 32 -207 41 -79 5 -227 7 -330 3 l-188 -7 0 114 c0 63 3 118 7 122
4 4 174 6 378 4 311 -4 380 -7 430 -22z m-677 -643 l-3 -278 -63 -8 c-35 -5
-65 -7 -67 -5 -2 1 -6 130 -11 286 l-7 282 77 0 76 0 -2 -277z m205 260 c-30
-4 -32 -7 -36 -51 l-3 -47 -2 53 -2 52 38 -2 c36 -1 36 -1 5 -5z m427 -125
c60 -92 64 -171 15 -267 -50 -99 -112 -132 -261 -139 l-101 -4 -6 47 c-4 26
-7 114 -7 196 0 185 -5 179 158 179 73 0 111 4 107 10 -3 6 3 10 15 10 17 0
19 3 10 19 -32 61 25 20 70 -51z m-444 -88 c24 0 50 -30 35 -39 -9 -6 -8 -12
5 -26 10 -10 19 -27 21 -39 1 -11 5 -34 8 -49 3 -16 1 -26 -5 -22 -5 3 -12
-10 -16 -30 -7 -37 -24 -48 -24 -15 0 13 -7 20 -20 20 -13 0 -20 -7 -20 -20 0
-11 4 -20 9 -20 5 0 11 -9 14 -20 4 -14 0 -20 -11 -21 -12 0 -10 -3 6 -9 30
-12 28 -30 -3 -30 l-25 0 2 193 c0 105 3 177 5 160 3 -21 10 -33 19 -33z m40
-709 c16 -16 34 -34 39 -41 6 -7 35 -24 65 -39 42 -20 76 -50 147 -131 88
-100 345 -430 445 -570 25 -36 65 -83 87 -105 41 -39 71 -109 54 -126 -4 -4
-71 -9 -148 -9 -155 -2 -153 -3 -118 63 21 42 9 79 -53 155 -30 37 -107 135
-171 217 -64 83 -144 182 -178 220 -105 120 -244 309 -259 353 l-15 42 38 0
c30 0 46 -7 67 -29z m400 -101 c45 0 52 -3 63 -26 15 -34 89 -131 167 -219 33
-38 94 -115 134 -170 208 -284 305 -408 352 -450 28 -25 49 -47 47 -50 -3 -2
-48 -1 -101 2 l-97 6 -87 131 c-115 172 -238 337 -301 406 -28 30 -77 87 -109
125 -32 39 -79 93 -104 121 -25 28 -56 70 -69 94 l-24 43 39 -6 c21 -4 62 -7
90 -7z m-375 -487 c1 -32 2 -98 3 -148 1 -49 1 -80 -1 -67 -5 24 -43 32 -43 8
0 -7 -11 -16 -25 -18 l-25 -5 0 118 c0 131 4 149 31 149 10 0 19 5 19 10 0 6
9 10 20 10 18 0 20 -7 21 -57z m-3264 -74 c48 -23 116 -108 103 -129 -6 -9
-10 -7 -15 9 -3 11 -11 21 -16 21 -12 0 -11 -14 2 -27 13 -13 -5 -90 -28 -114
-8 -9 -18 -30 -23 -45 l-8 -29 -1 28 c-1 21 -9 31 -35 44 -39 18 -77 12 -106
-17 -18 -18 -19 -23 -6 -48 24 -46 52 -65 85 -59 29 6 30 6 19 -24 -6 -16 -22
-38 -37 -47 -14 -9 -38 -29 -52 -44 -14 -15 -29 -28 -33 -28 -4 0 -16 -9 -28
-19 l-21 -20 24 -5 c13 -3 33 -7 44 -9 15 -4 13 -5 -6 -6 -57 -2 -154 37 -199
81 -177 174 -94 455 150 509 52 11 139 1 187 -22z m6042 14 c29 -9 72 -34 96
-55 40 -35 44 -42 38 -71 -3 -18 -14 -43 -25 -56 -10 -13 -18 -31 -18 -40 0
-29 -30 -61 -56 -61 -13 0 -27 -7 -30 -15 -9 -23 5 -65 21 -65 21 0 19 -37 -3
-57 -11 -10 -40 -35 -65 -56 -38 -30 -47 -44 -47 -69 l0 -31 -52 7 c-144 19
-240 135 -241 291 -1 82 20 136 79 204 73 84 187 112 303 74z m-5702 -300 c-3
-10 -5 -2 -5 17 0 19 2 27 5 18 2 -10 2 -26 0 -35z m0 -45 c-3 -8 -6 -5 -6 6
-1 11 2 17 5 13 3 -3 4 -12 1 -19z m130 -160 c-3 -8 -6 -5 -6 6 -1 11 2 17 5
13 3 -3 4 -12 1 -19z m-694 -235 c-7 -2 -19 -2 -25 0 -7 3 -2 5 12 5 14 0 19
-2 13 -5z m6247 0 c-14 -3 -31 -10 -37 -15 -10 -8 -13 -6 -13 6 0 12 9 16 38
15 27 -1 30 -3 12 -6z m-5830 -1137 l0 -908 -22 7 c-13 4 -51 15 -85 24 l-62
16 4 860 c2 473 4 863 5 867 0 4 7 5 15 2 22 -9 79 14 105 41 18 19 26 22 32
13 4 -7 8 -422 8 -922z m2110 591 c0 -2 -22 -18 -49 -36 -28 -17 -61 -45 -75
-62 l-26 -30 -32 37 c-18 20 -55 48 -83 60 l-49 23 99 4 c55 1 126 4 158 5 31
1 57 1 57 -1z m420 -13 c-14 -10 -48 -39 -76 -67 l-52 -49 -36 39 c-19 22 -55
48 -78 59 l-43 19 95 6 c52 3 122 6 155 7 58 2 59 2 35 -14z m453 -4 c-24 -10
-65 -40 -93 -66 -27 -26 -50 -42 -50 -36 0 17 -65 74 -113 99 l-42 22 170 0
170 1 -42 -20z m482 10 c-3 -5 -12 -10 -19 -10 -21 0 -96 -60 -121 -98 l-24
-35 -12 26 c-14 31 -92 94 -129 105 -18 5 -2 9 55 13 145 10 257 10 250 -1z
m399 -19 c-28 -16 -63 -45 -78 -65 -15 -20 -30 -36 -34 -36 -4 0 -19 18 -35
39 -15 22 -47 49 -72 61 -25 12 -45 24 -45 26 0 2 71 4 158 4 l157 0 -51 -29z
m477 12 c-45 -19 -114 -76 -131 -107 l-13 -25 -28 43 c-17 26 -48 53 -74 67
l-45 24 127 5 c71 3 144 6 163 7 l35 1 -34 -15z m459 11 c0 -2 -19 -13 -42
-25 -24 -12 -60 -40 -81 -63 -34 -37 -39 -39 -48 -23 -20 34 -70 86 -90 92
-44 14 -11 20 121 21 77 1 140 0 140 -2z m370 -4 l138 0 1 -184 c1 -101 -1
-196 -5 -211 -6 -24 -10 -26 -38 -21 -17 3 -59 9 -94 12 -53 6 -62 9 -56 23
23 56 33 108 28 145 -14 86 -81 178 -156 212 l-42 19 29 6 c17 4 36 5 43 3 8
-2 76 -4 152 -4z m-2466 -139 c69 -39 90 -116 48 -183 -54 -88 -165 -91 -236
-8 -40 49 -37 108 10 160 54 60 110 70 178 31z m1359 -10 c70 -64 72 -138 7
-203 -31 -32 -45 -38 -79 -38 -48 0 -113 30 -135 62 -22 31 -20 106 3 141 51
77 144 95 204 38z m850 25 c52 -21 87 -70 87 -119 0 -73 -51 -132 -123 -144
-48 -7 -122 28 -143 70 -44 85 30 199 134 206 7 1 27 -5 45 -13z m-3085 -26
c52 -37 66 -63 59 -111 -10 -73 -87 -136 -154 -126 -72 12 -141 91 -129 149
21 104 139 150 224 88z m425 15 c123 -59 87 -233 -51 -252 -74 -10 -152 56
-152 128 0 45 35 105 72 126 31 17 93 16 131 -2z m897 0 c96 -50 96 -180 0
-234 -87 -49 -195 -1 -213 94 -8 43 24 110 65 135 39 24 107 26 148 5z m457
-5 c86 -52 82 -189 -6 -235 -41 -21 -110 -19 -145 4 -85 56 -88 156 -6 225 40
33 109 36 157 6z m891 0 c20 -12 41 -38 52 -63 26 -58 14 -102 -40 -151 -34
-30 -47 -36 -86 -36 -143 0 -195 150 -84 244 40 33 109 36 158 6z m-2410 -445
c61 -66 35 -167 -54 -207 -63 -27 -107 -18 -156 33 -32 34 -38 47 -38 85 0 38
6 51 38 86 64 68 148 69 210 3z m1748 25 c34 -21 64 -74 64 -112 0 -67 -72
-136 -143 -138 -67 -1 -147 75 -147 141 0 32 7 47 38 80 53 57 125 68 188 29z
m-1310 -24 c51 -51 56 -80 21 -140 -28 -49 -78 -76 -138 -76 -54 0 -88 22
-113 74 -22 47 -20 88 6 121 34 43 78 65 132 65 44 0 53 -4 92 -44z m414 29
c98 -51 89 -191 -17 -236 -30 -13 -56 -17 -78 -13 -47 8 -102 58 -116 104 -31
104 106 199 211 145z m447 -5 c44 -26 66 -63 66 -111 0 -69 -72 -139 -143
-139 -72 0 -140 72 -140 149 0 26 9 43 44 77 39 40 48 44 92 44 31 0 61 -7 81
-20z m881 0 c94 -57 91 -168 -6 -232 -82 -54 -202 18 -202 121 0 99 121 164
208 111z m443 5 c40 -21 69 -71 69 -120 0 -81 -59 -135 -147 -135 -44 0 -54 5
-91 40 -41 40 -47 57 -42 120 7 83 128 137 211 95z m449 0 c68 -35 94 -127 53
-183 -66 -90 -167 -95 -237 -12 -49 59 -27 158 45 193 42 21 101 22 139 2z
m-2929 -301 c13 -14 17 -23 9 -19 -13 5 -46 45 -37 45 2 0 14 -11 28 -26z
m2689 -25 c0 -3 -11 -4 -24 -2 -16 3 -23 10 -19 19 4 10 9 11 24 1 10 -6 19
-15 19 -18z m-1782 -7 c2 -8 -9 -12 -32 -12 -43 0 -57 17 -19 23 37 5 46 3 51
-11z m1140 -159 l82 -6 0 -160 0 -159 -427 8 c-361 8 -797 8 -1406 0 l-117 -1
0 95 c0 52 -3 125 -7 163 l-6 67 899 0 c494 0 936 -3 982 -7z m-2068 -120 c0
-65 3 -135 6 -155 l7 -38 -240 0 -239 0 -41 35 c-61 52 -83 105 -83 198 l0 77
295 0 295 0 0 -117z m2878 108 l152 -1 0 -48 c0 -62 -38 -140 -100 -204 l-46
-48 -282 1 -282 0 0 24 c0 14 8 29 18 34 14 7 20 33 31 123 7 62 15 116 17
120 3 4 80 6 172 3 92 -2 236 -4 320 -4z m-1831 -537 c-3 -3 -12 -4 -19 -1 -8
3 -5 6 6 6 11 1 17 -2 13 -5z m-3341 -42 c62 -31 97 -65 122 -116 18 -35 21
-50 13 -65 -6 -11 -11 -35 -11 -55 0 -19 -4 -36 -9 -38 -6 -1 -11 -29 -12 -60
-1 -31 -5 -57 -8 -56 -41 4 -54 -20 -26 -48 12 -13 12 -17 -3 -33 -9 -10 -19
-16 -21 -14 -2 1 -9 -4 -15 -11 -17 -21 -100 -46 -156 -46 -62 0 -151 33 -196
72 -19 17 -47 52 -62 77 -24 41 -27 56 -27 141 l0 95 50 58 c55 64 95 92 158
113 57 19 152 12 203 -14z m5847 -2 c81 -42 111 -88 100 -155 -8 -49 -55 -82
-87 -59 -26 18 -77 18 -101 0 -14 -10 -19 -25 -19 -55 2 -56 28 -85 69 -77
l30 6 -37 -25 c-22 -15 -46 -44 -58 -69 -11 -25 -31 -53 -45 -64 l-26 -21 43
-9 c38 -9 39 -10 13 -11 -46 -2 -140 26 -184 53 -76 49 -121 134 -121 233 0
61 20 107 75 171 44 51 80 71 124 70 21 -1 39 7 53 22 18 20 28 22 75 17 30
-3 73 -15 96 -27z m-2926 -188 c37 -19 103 -86 103 -104 0 -14 -62 -98 -73
-99 -7 -1 -41 -2 -77 -2 l-65 -2 2 -34 c1 -19 10 -43 22 -54 l20 -20 35 27 36
27 0 -26 c0 -38 -15 -61 -64 -94 -24 -17 -46 -39 -48 -49 -6 -21 9 -46 32 -55
12 -4 11 -6 -2 -6 -10 -1 -18 -8 -18 -16 0 -20 -60 -20 -128 0 -139 42 -225
191 -191 332 14 58 77 146 122 170 71 37 226 40 294 5z m-2684 -364 c-4 -7 -8
-16 -8 -20 0 -5 -3 -7 -6 -5 -4 1 -17 -7 -30 -18 -13 -11 -8 -3 10 18 35 37
49 47 34 25z m5773 -70 c4 -7 3 -8 -5 -4 -6 4 -14 0 -17 -8 -3 -9 -13 -16 -21
-16 -8 0 -12 -4 -9 -8 3 -5 0 -9 -7 -9 -7 0 -22 -3 -34 -7 -39 -12 -25 2 21
22 24 11 47 25 50 31 9 14 13 14 22 -1z m-151 -68 c-3 -5 -14 -10 -23 -9 -14
0 -13 2 3 9 27 11 27 11 20 0z m-5838 -6 c-3 -3 -12 -4 -19 -1 -8 3 -5 6 6 6
11 1 17 -2 13 -5z m-50 -10 c-3 -3 -12 -4 -19 -1 -8 3 -5 6 6 6 11 1 17 -2 13
-5z m5836 -1 c-7 -2 -21 -2 -30 0 -10 3 -4 5 12 5 17 0 24 -2 18 -5z m-5866
-173 c-1 -12 -5 -16 -10 -11 -5 5 -6 14 -3 20 11 16 15 13 13 -9z m6307 -45
c3 -8 1 -15 -4 -15 -6 0 -10 7 -10 15 0 8 2 15 4 15 2 0 6 -7 10 -15z m-27
-31 c-3 -3 -12 -4 -19 -1 -8 3 -5 6 6 6 11 1 17 -2 13 -5z m-142 -54 c-3 -5
-12 -10 -18 -10 -7 0 -6 4 3 10 19 12 23 12 15 0z"/>
<path d="M5130 8185 c-14 -17 -7 -69 11 -92 20 -23 75 -16 98 13 27 34 27 59
-1 78 -29 20 -92 21 -108 1z"/>
<path d="M7800 8092 c0 -17 6 -32 13 -35 10 -4 12 3 9 24 -6 40 -22 47 -22 11z"/>
<path d="M2233 8030 c-25 -10 -43 -39 -43 -70 0 -29 44 -70 75 -70 33 0 75 41
75 73 0 49 -58 86 -107 67z"/>
<path d="M6285 7801 c-88 -53 -109 -122 -58 -189 42 -56 80 -74 144 -69 102 9
149 52 149 138 0 96 -150 173 -235 120z"/>
<path d="M7039 7806 c-111 -31 -239 -137 -288 -240 -93 -191 -56 -403 96 -551
48 -47 140 -94 198 -102 25 -3 48 -9 50 -13 3 -5 2 -76 -2 -160 -5 -126 -9
-153 -22 -156 -132 -39 -235 -202 -218 -346 10 -84 59 -172 125 -224 32 -24
71 -48 87 -52 l30 -8 0 -174 0 -173 -33 -11 c-53 -18 -100 -63 -132 -125 -56
-111 -49 -226 18 -323 56 -79 168 -140 259 -142 18 0 28 -3 21 -7 -6 -4 -8
-14 -5 -23 4 -9 6 -19 6 -22 0 -4 13 -14 29 -24 23 -14 38 -16 74 -10 105 20
209 80 227 131 6 18 11 64 11 103 0 74 -22 140 -59 181 -10 11 -26 42 -36 68
-37 98 -112 177 -187 198 l-38 10 0 119 0 120 39 0 c21 0 58 7 82 15 83 29
198 88 204 104 4 9 9 61 12 116 7 132 -5 173 -66 233 -27 26 -60 67 -74 92
-43 75 -94 127 -152 156 l-55 26 0 88 c0 107 5 124 31 110 26 -14 205 13 262
40 25 12 72 46 105 76 79 71 103 129 110 269 4 97 3 103 -26 160 -36 71 -102
166 -102 146 0 -7 -18 23 -40 66 -88 176 -241 274 -424 272 -39 0 -92 -7 -117
-13z m246 -163 c54 -29 117 -97 149 -160 32 -64 35 -157 9 -242 -49 -158 -256
-243 -414 -170 -72 34 -120 82 -159 163 -30 61 -32 71 -28 143 8 138 88 245
209 282 56 17 188 8 234 -16z m-67 -1197 c125 -65 137 -261 19 -322 -50 -26
-118 -22 -167 10 -114 75 -102 266 20 315 37 14 97 13 128 -3z m41 -987 c49
-36 75 -99 66 -164 -8 -66 -32 -98 -89 -120 -47 -18 -99 -11 -142 19 -31 22
-64 99 -64 149 0 116 135 186 229 116z"/>
<path d="M7080 7551 c-54 -29 -108 -87 -119 -129 -25 -88 -4 -189 50 -239 13
-12 45 -31 71 -43 43 -19 54 -20 111 -10 79 14 125 49 161 122 36 71 36 141 0
194 -30 43 -40 52 -103 95 -53 35 -117 38 -171 10z m143 -229 c23 -19 11 -38
-32 -51 -53 -15 -68 -14 -91 9 -18 18 -27 69 -15 82 8 8 119 -25 138 -40z"/>
<path d="M3141 7793 c-21 -17 -22 -27 -24 -195 l-2 -178 -43 0 -43 0 4 143 c2
78 7 154 11 169 17 59 -79 94 -124 46 -20 -22 -21 -33 -19 -188 l2 -165 -57
-3 c-51 -3 -56 -5 -56 -26 0 -24 -28 -56 -49 -56 -6 0 -21 -9 -33 -20 -24 -22
-27 -21 46 -24 26 -1 31 -6 38 -36 4 -19 6 -45 3 -57 -5 -20 -11 -21 -154 -25
-129 -3 -152 -5 -170 -22 -29 -27 -26 -50 11 -81 l31 -26 139 7 138 7 0 -62 0
-61 -144 0 c-130 0 -146 -2 -170 -21 -35 -28 -33 -51 9 -87 34 -31 36 -31 122
-26 49 2 109 6 136 9 l47 4 0 -64 0 -65 -153 0 c-149 0 -154 -1 -176 -24 -26
-27 -21 -44 23 -85 25 -23 29 -24 133 -17 59 4 123 4 141 0 l33 -7 -3 -56 -3
-56 -141 3 c-140 4 -140 4 -173 -23 -38 -33 -38 -59 2 -89 26 -19 39 -21 173
-18 l144 4 0 -86 0 -86 50 0 50 0 0 -163 0 -164 -40 -32 c-45 -36 -83 -97
-100 -159 -17 -64 2 -139 51 -204 48 -65 97 -95 165 -104 88 -11 133 2 182 53
94 99 116 195 68 312 -23 56 -23 62 -9 102 8 26 16 102 20 194 l6 152 80 7
c44 4 82 4 86 0 3 -3 6 -142 7 -307 0 -166 1 -366 2 -444 l2 -143 43 0 c77 0
72 -31 75 455 l3 435 89 0 c71 0 89 -3 94 -16 3 -9 6 -91 6 -184 0 -167 0
-168 -31 -234 -19 -40 -33 -89 -36 -125 -5 -52 -2 -68 24 -123 40 -85 83 -132
150 -164 47 -22 65 -25 107 -20 28 4 57 7 64 8 6 1 12 5 12 10 0 4 7 8 14 8
24 0 74 60 109 130 39 78 44 170 13 233 -31 63 -96 125 -151 145 -50 17 -50
18 -53 65 -2 34 3 58 19 86 18 32 21 51 17 109 l-4 71 66 3 65 3 3 87 3 86 74
7 c41 4 103 4 137 1 59 -7 65 -5 97 22 39 32 38 51 -6 79 -23 15 -49 18 -163
18 l-135 0 -3 63 -3 63 137 -2 137 -1 29 30 c22 22 28 35 23 51 -13 41 -49 49
-193 42 l-132 -6 0 68 0 69 134 -3 c131 -4 135 -3 160 20 33 31 33 64 2 89
-22 17 -38 18 -160 14 l-136 -5 0 63 0 62 136 -4 136 -3 24 28 c50 59 17 102
-73 96 -56 -3 -215 -1 -219 4 -2 1 -6 52 -9 112 -4 61 -11 115 -16 120 -6 6
-34 10 -62 10 l-52 0 -3 168 -2 167 -34 0 c-50 0 -70 -28 -57 -77 6 -21 11
-88 11 -150 l0 -112 -34 -7 c-58 -10 -60 -5 -52 135 4 69 12 142 18 162 15 53
-1 79 -52 79 -29 0 -43 -6 -58 -25 -19 -24 -20 -38 -17 -181 1 -85 0 -156 -4
-158 -4 -3 -42 -6 -85 -7 l-78 -2 2 173 c1 194 -4 210 -65 210 -49 0 -60 -21
-60 -114 0 -45 -2 -123 -3 -173 l-2 -93 -81 0 -82 0 8 164 c7 182 4 197 -46
215 -39 14 -33 14 -58 -6z m824 -505 c3 -3 6 -233 8 -512 l2 -507 -519 1
c-286 0 -522 3 -525 6 -11 10 -13 342 -6 681 l7 332 107 4 c151 6 920 2 926
-5z m-867 -1310 l2 -168 -34 0 c-63 0 -61 -4 -58 163 2 83 5 158 7 165 3 9 18
12 42 10 l38 -3 3 -167z m792 12 c4 -100 2 -158 -5 -162 -18 -13 -53 -9 -59 8
-8 20 -8 127 1 232 6 82 6 83 32 80 l26 -3 5 -155z m92 -317 c52 -56 62 -115
32 -179 -34 -72 -103 -93 -165 -51 -78 52 -90 151 -27 222 27 32 35 35 82 35
44 0 56 -4 78 -27z m-924 -8 c98 -82 -4 -259 -116 -201 -41 21 -82 72 -82 103
0 34 28 90 54 108 34 25 110 19 144 -10z"/>
<path d="M3026 7169 c-3 -17 -6 -206 -6 -420 l0 -389 428 -2 c235 -2 428 -3
429 -3 1 0 3 190 5 423 l3 422 -426 0 -426 0 -7 -31z m705 -389 c-1 -157 -4
-286 -6 -288 -2 -2 -127 0 -279 4 l-276 7 0 261 c0 144 -3 271 -6 284 l-7 23
289 -3 289 -3 -4 -285z"/>
<path d="M3310 6977 c-34 -17 -39 -74 -10 -125 25 -44 62 -72 68 -52 3 7 13
21 23 31 21 21 27 106 9 140 -12 22 -53 25 -90 6z"/>
<path d="M3534 6982 c-40 -26 -44 -104 -9 -156 14 -20 25 -44 25 -52 0 -8 -11
-30 -25 -48 -30 -39 -35 -115 -9 -140 18 -19 65 -21 82 -4 20 20 15 118 -8
156 -20 33 -20 33 0 76 10 24 24 63 29 87 9 39 7 46 -11 66 -21 23 -53 29 -74
15z"/>
<path d="M3320 6723 c-29 -33 -32 -41 -26 -81 3 -25 11 -51 17 -58 15 -19 64
-18 80 2 21 26 24 117 4 148 -23 35 -37 33 -75 -11z"/>
<path d="M5160 7665 c33 -19 50 -18 26 0 -11 8 -27 15 -35 15 -10 -1 -7 -6 9
-15z"/>
<path d="M5650 7670 c-8 -5 -12 -12 -9 -15 4 -3 12 1 19 10 14 17 11 19 -10 5z"/>
<path d="M2523 7323 c9 -2 23 -2 30 0 6 3 -1 5 -18 5 -16 0 -22 -2 -12 -5z"/>
<path d="M6626 5882 c-12 -21 -15 -67 -3 -74 19 -12 72 -9 85 4 17 17 15 49
-5 64 -20 15 -69 19 -77 6z"/>
<path d="M2952 5116 c-29 -58 -52 -107 -52 -111 0 -3 -24 -54 -53 -113 -51
-103 -90 -167 -158 -259 -39 -51 -36 -69 26 -143 49 -60 122 -196 131 -247 l7
-33 -48 0 -48 0 6 -286 c5 -261 4 -286 -11 -291 -9 -4 -36 -19 -58 -34 -67
-45 -72 -69 -70 -332 l1 -228 71 -67 71 -67 7 -106 c7 -125 16 -156 48 -161
21 -3 23 -9 28 -79 6 -90 19 -110 95 -144 28 -12 70 -41 95 -63 40 -37 49 -41
85 -37 29 3 33 2 15 -3 -24 -8 -24 -8 15 -24 38 -15 40 -15 43 4 2 10 11 22
20 26 18 6 42 27 42 36 0 3 -9 6 -20 6 -22 0 -28 25 -7 33 8 4 7 6 -3 6 -8 1
2 12 23 26 20 14 40 37 43 50 3 14 10 23 14 20 5 -3 16 2 25 12 14 14 18 14
27 2 7 -11 11 -11 15 -1 2 6 17 12 32 12 27 0 28 2 35 67 7 72 10 66 -62 123
-27 21 -43 160 -18 160 13 0 16 12 16 65 0 37 4 65 10 65 15 0 12 48 -2 52
-15 5 -25 314 -27 827 l-1 334 -50 -6 c-47 -6 -50 -5 -50 16 0 12 9 38 20 57
11 19 40 74 64 121 25 47 56 100 70 116 14 17 26 41 26 54 0 13 -32 74 -71
134 -76 118 -138 236 -214 408 l-48 107 -52 0 -52 0 -51 -104z m104 -198 c-3
-35 -8 -99 -11 -143 -6 -77 -8 -82 -47 -122 l-41 -42 41 -45 42 -46 0 -148 c0
-148 -5 -172 -37 -172 -7 0 -15 10 -17 23 -19 102 -32 143 -67 214 -22 46 -53
98 -70 117 l-30 35 49 73 c27 41 77 129 111 196 34 67 66 122 71 122 7 0 9
-23 6 -62z m167 -243 c11 -16 31 -42 45 -57 l25 -27 -33 -37 c-52 -60 -120
-209 -128 -284 -6 -56 -10 -65 -27 -65 -19 0 -20 5 -16 155 3 127 7 162 22
192 25 49 24 89 -2 117 -19 21 -22 36 -24 148 l-2 125 60 -118 c32 -65 68
-132 80 -149z m-8 -930 l1 -324 -165 0 -164 -1 6 227 c4 124 7 268 7 320 l0
93 80 0 80 0 1 -27 2 -28 4 27 c4 25 8 27 61 31 31 2 64 4 72 5 13 2 15 -40
15 -323z m-455 -466 c0 -140 -3 -180 -12 -176 -14 4 -14 23 -10 242 1 69 6
115 12 115 6 0 10 -67 10 -181z m480 -22 c0 -52 -19 -57 -206 -57 l-154 0 0
44 c0 55 -6 54 202 52 l158 -1 0 -38z m-58 -177 l48 0 0 -52 0 -53 -175 -3
-175 -2 0 54 c0 66 1 66 149 60 57 -2 126 -4 153 -4z m32 -267 c3 -26 5 -47 3
-49 -1 -1 -68 -4 -150 -6 l-147 -3 0 52 0 53 144 -1 143 0 7 -46z m-134 -197
c0 -48 -17 -76 -47 -76 -38 0 -49 10 -58 49 -9 41 3 51 63 51 38 0 42 -2 42
-24z m81 20 c3 -3 3 -23 1 -45 -4 -39 -6 -41 -38 -41 -34 0 -34 1 -34 45 0 44
0 45 33 45 19 0 36 -2 38 -4z m156 -113 c-3 -10 -5 -4 -5 12 0 17 2 24 5 18 2
-7 2 -21 0 -30z"/>
<path d="M4010 4806 c-62 -33 -81 -62 -87 -133 -6 -64 7 -102 45 -136 17 -16
35 -18 99 -17 43 2 103 2 134 1 l56 -2 -5 53 c-3 41 0 57 12 67 21 18 21 80 0
110 -9 13 -37 36 -62 52 -60 38 -128 40 -192 5z"/>
<path d="M4532 4733 c-36 -4 -43 -7 -37 -21 4 -9 25 -64 46 -122 22 -58 44
-116 50 -130 8 -21 15 -25 51 -24 44 1 44 1 75 122 8 31 18 28 31 -10 38 -113
38 -113 79 -113 l38 0 50 145 c28 80 49 148 47 153 -2 4 -23 7 -48 7 -39 0
-44 -2 -44 -23 0 -12 -9 -47 -19 -77 l-20 -55 -25 58 c-14 32 -26 64 -26 72 0
19 -15 27 -42 20 -17 -4 -33 -28 -62 -88 l-39 -82 -9 35 c-26 97 -40 140 -46
138 -4 -1 -27 -3 -50 -5z"/>
<path d="M5103 4591 l1 -149 26 -5 c14 -2 33 -8 43 -12 15 -6 17 -1 17 44 0
67 20 68 61 2 30 -47 33 -49 68 -44 20 3 37 7 39 8 2 2 -8 21 -22 44 -27 43
-32 61 -17 61 16 0 51 66 51 96 0 72 -55 104 -179 104 l-90 0 2 -149z m185 42
c4 -25 -28 -43 -74 -43 -21 0 -24 5 -24 36 l0 35 48 -3 c40 -3 47 -6 50 -25z"/>
<path d="M5583 4733 l-33 -4 0 -150 0 -149 33 0 c56 0 58 5 64 155 5 111 3
139 -8 146 -8 5 -16 8 -19 7 -3 -1 -20 -3 -37 -5z"/>
<path d="M5788 4700 l4 -40 49 0 49 0 0 -116 0 -117 38 7 c20 3 42 6 47 6 6 0
9 40 7 105 l-3 105 40 0 41 0 0 45 0 45 -138 0 -138 0 4 -40z"/>
<path d="M6225 4585 l0 -155 125 0 126 0 -4 40 -4 40 -74 0 c-67 0 -74 2 -74
20 0 16 8 19 58 22 56 3 57 4 60 35 l3 32 -63 -2 c-57 -2 -63 0 -66 19 -3 20
3 22 77 28 l81 7 0 35 0 34 -122 0 -123 0 0 -155z"/>
<path d="M6683 4720 c-57 -35 -70 -91 -29 -129 13 -12 49 -30 80 -40 32 -10
57 -21 57 -24 -1 -4 -1 -11 -1 -17 0 -12 -57 -13 -64 -1 -12 19 -47 18 -71 -1
-14 -11 -25 -24 -25 -29 0 -19 85 -49 139 -49 47 0 57 4 87 34 66 66 36 137
-64 152 -54 8 -73 19 -65 40 7 19 37 18 80 -3 34 -16 36 -16 49 2 8 10 14 27
14 37 0 45 -128 65 -187 28z"/>
<path d="M7156 4670 c-20 -22 -36 -42 -36 -45 0 -10 48 -81 64 -94 36 -30 146
28 146 78 0 27 -28 60 -70 81 -54 27 -62 26 -104 -20z"/>
<path d="M7516 4634 c-11 -27 29 -80 50 -66 18 12 27 64 12 73 -21 14 -55 10
-62 -7z"/>
<path d="M3427 4173 c9 -37 22 -74 31 -82 13 -13 14 -13 9 4 -3 11 -9 34 -12
50 -12 56 -26 95 -35 95 -4 0 -1 -30 7 -67z"/>
<path d="M3986 3425 c-10 -26 -14 -105 -4 -99 10 6 20 66 16 95 -3 23 -4 23
-12 4z"/>
<path d="M3513 3225 c0 -33 2 -45 4 -27 2 18 2 45 0 60 -2 15 -4 0 -4 -33z"/>
<path d="M3390 3156 c0 -31 6 -34 13 -6 3 11 1 23 -4 26 -5 3 -9 -6 -9 -20z"/>
<path d="M3387 3100 c3 -11 9 -20 13 -20 5 0 6 9 3 20 -3 11 -9 20 -13 20 -5
0 -6 -9 -3 -20z"/>
<path d="M3504 3014 c-4 -30 -3 -49 4 -53 7 -4 13 -59 15 -146 2 -131 3 -128
5 47 2 181 -9 251 -24 152z"/>
<path d="M6648 2603 c6 -2 18 -2 25 0 6 3 1 5 -13 5 -14 0 -19 -2 -12 -5z"/>
<path d="M3513 2545 c0 -27 2 -38 4 -22 2 15 2 37 0 50 -2 12 -4 0 -4 -28z"/>
<path d="M5864 2482 c-88 -3 -92 -4 -96 -27 -6 -27 8 -43 60 -70 49 -24 63
-27 207 -35 155 -10 1293 -13 1357 -4 42 6 47 9 56 43 21 70 23 79 12 86 -10
6 -1418 13 -1596 7z"/>
<path d="M3240 2304 c0 -9 -8 -22 -17 -29 -15 -11 -10 -14 40 -20 60 -8 107
-1 107 15 0 6 -20 10 -45 10 -45 0 -65 19 -22 21 21 1 21 1 -3 9 -41 13 -60
11 -60 -6z m73 -41 c-7 -2 -19 -2 -25 0 -7 3 -2 5 12 5 14 0 19 -2 13 -5z"/>
<path d="M6148 7044 c35 -69 71 -196 74 -261 2 -35 6 -63 11 -63 7 0 11 56 10
143 -1 56 -47 159 -89 197 l-26 25 20 -41z"/>
<path d="M6221 6684 c0 -11 3 -14 6 -6 3 7 2 16 -1 19 -3 4 -6 -2 -5 -13z"/>
<path d="M5125 6153 c13 -13 95 -33 95 -23 0 4 -12 10 -27 14 -16 3 -39 8 -53
12 -17 5 -22 3 -15 -3z"/>
<path d="M1858 5328 c-2 -7 -1 -26 3 -43 6 -28 7 -26 8 13 1 42 -3 53 -11 30z"/>
<path d="M1960 2366 c0 -8 4 -17 9 -20 5 -4 7 3 4 14 -6 23 -13 26 -13 6z"/>
<path d="M2205 2266 c-17 -26 -12 -50 18 -83 36 -40 91 -23 122 37 18 36 18
35 -1 54 -10 11 -34 16 -69 16 -46 0 -57 -4 -70 -24z"/>
<path d="M2325 2030 c-3 -5 -2 -10 4 -10 5 0 13 5 16 10 3 6 2 10 -4 10 -5 0
-13 -4 -16 -10z"/>
<path d="M7800 2361 c0 -6 4 -13 10 -16 6 -3 7 1 4 9 -7 18 -14 21 -14 7z"/>
<path d="M4236 8489 c-36 -10 -46 -24 -46 -66 0 -60 84 -86 128 -40 54 57 -2
130 -82 106z"/>
<path d="M4467 8483 c-29 -33 -30 -66 -3 -96 31 -33 65 -35 94 -4 28 30 28 68
-1 95 -28 26 -68 28 -90 5z"/>
<path d="M5677 8488 c-9 -7 -19 -25 -22 -40 -5 -21 -1 -33 19 -52 27 -28 55
-33 87 -16 28 15 25 65 -6 95 -27 28 -53 32 -78 13z"/>
<path d="M3032 8474 c-28 -19 -29 -67 -2 -94 29 -29 103 -28 124 2 19 27 21
79 4 96 -17 17 -100 15 -126 -4z"/>
<path d="M3310 8480 c-18 -11 -18 -83 0 -105 16 -20 91 -20 166 0 31 8 58 16
60 17 9 9 13 55 6 66 -16 25 -200 42 -232 22z"/>
<path d="M3657 8483 c-12 -11 -8 -98 5 -111 22 -22 86 -14 113 13 27 26 33 73
13 93 -13 13 -120 17 -131 5z"/>
<path d="M3978 8478 c-23 -8 -28 -16 -28 -44 0 -48 32 -78 74 -70 44 9 69 41
60 80 -4 17 -12 34 -18 38 -15 10 -55 9 -88 -4z"/>
<path d="M5918 8470 c-57 -45 -23 -116 55 -114 96 3 107 118 12 131 -31 4 -46
0 -67 -17z"/>
<path d="M6200 8477 c-34 -17 -39 -68 -11 -96 59 -59 150 15 111 90 -12 22
-61 26 -100 6z"/>
<path d="M6458 8479 c-27 -15 -24 -83 4 -103 31 -22 60 -20 92 5 30 24 35 69
10 93 -17 18 -80 21 -106 5z"/>
<path d="M6708 8473 c-28 -32 -30 -58 -7 -86 13 -18 30 -27 49 -27 44 0 58 9
70 46 17 51 -6 84 -59 84 -24 0 -44 -7 -53 -17z"/>
<path d="M6958 8470 c-34 -26 -35 -48 -7 -85 20 -25 26 -26 73 -21 28 3 81 9
119 12 60 6 68 9 73 30 3 13 3 35 0 49 -6 23 -11 25 -60 25 -29 0 -80 3 -112
6 -51 5 -63 3 -86 -16z"/>
<path d="M7362 8474 c-16 -11 -22 -25 -22 -54 0 -29 6 -43 22 -54 51 -36 108
-7 108 54 0 42 -26 70 -65 70 -11 0 -31 -7 -43 -16z"/>
<path d="M2770 8460 c-26 -26 -25 -52 3 -78 29 -27 78 -29 100 -4 20 22 22 73
5 90 -20 20 -85 15 -108 -8z"/>
<path d="M8720 7840 c6 -11 13 -20 16 -20 2 0 0 9 -6 20 -6 11 -13 20 -16 20
-2 0 0 -9 6 -20z"/>
<path d="M8773 7685 c0 -22 2 -30 4 -17 2 12 2 30 0 40 -3 9 -5 -1 -4 -23z"/>
<path d="M8397 7648 c2 -5 0 -8 -5 -8 -4 0 -17 -8 -28 -18 -10 -9 -31 -23 -46
-29 -30 -13 -38 -43 -13 -43 8 0 15 -7 15 -15 0 -12 13 -15 60 -15 l60 0 0 40
c0 33 3 40 20 40 15 0 20 7 20 30 0 28 -1 29 -44 27 -24 -1 -42 -5 -39 -9z
m-34 -65 c-7 -2 -19 -2 -25 0 -7 3 -2 5 12 5 14 0 19 -2 13 -5z"/>
<path d="M8480 7500 c0 -53 2 -60 20 -60 18 0 20 7 20 60 0 53 -2 60 -20 60
-18 0 -20 -7 -20 -60z"/>
<path d="M8220 7534 c0 -13 3 -14 13 -5 17 14 27 4 27 -26 0 -12 5 -23 10 -23
6 0 10 13 10 29 0 21 -6 30 -22 35 -34 9 -38 8 -38 -10z"/>
<path d="M8738 7458 c-12 -23 -23 -66 -14 -57 9 8 37 79 31 79 -2 0 -10 -10
-17 -22z"/>
<path d="M8698 7376 c-20 -15 -23 -26 -8 -26 5 0 14 9 20 20 12 23 11 24 -12
6z"/>
<path d="M8666 7325 c-11 -8 -17 -17 -14 -20 2 -3 13 4 23 15 21 23 18 25 -9
5z"/>
<path d="M1775 7275 c-33 -33 -32 -70 4 -106 35 -34 68 -37 105 -8 31 24 36
81 10 117 -22 32 -86 31 -119 -3z"/>
<path d="M8369 7271 c-24 -25 -28 -36 -27 -75 1 -25 6 -40 10 -33 8 12 10 7
12 -23 1 -9 15 -15 37 -18 31 -3 42 2 68 30 39 41 45 61 30 90 -34 66 -82 77
-130 29z"/>
<path d="M1785 6935 c-18 -17 -25 -35 -25 -63 0 -48 19 -66 67 -66 42 0 83 40
83 80 0 32 -42 74 -75 74 -14 0 -37 -11 -50 -25z"/>
<path d="M8380 6942 c-16 -13 -24 -32 -27 -69 -6 -58 3 -67 75 -79 38 -6 41
-4 56 24 22 43 20 98 -4 122 -25 25 -71 26 -100 2z"/>
<path d="M8366 6618 c-42 -60 -4 -138 67 -138 44 0 67 28 67 80 0 56 -23 80
-75 80 -34 0 -47 -5 -59 -22z"/>
<path d="M1780 6610 c-43 -43 -13 -130 44 -130 37 0 86 46 86 80 0 58 -88 92
-130 50z"/>
<path d="M8383 6319 c-39 -20 -47 -111 -12 -130 32 -16 87 -15 105 3 21 21 29
88 12 111 -16 21 -75 30 -105 16z"/>
<path d="M1782 6295 c-50 -63 -12 -135 63 -121 88 17 84 128 -6 142 -31 5 -39
2 -57 -21z"/>
<path d="M1810 6003 c-55 -21 -66 -75 -24 -117 33 -33 68 -33 99 -1 29 29 33
75 8 98 -21 18 -62 28 -83 20z"/>
<path d="M8362 5986 c-24 -32 -18 -77 15 -111 33 -32 58 -32 88 1 27 29 33 80
15 115 -17 30 -92 27 -118 -5z"/>
<path d="M8764 5218 c-4 -7 -3 -10 1 -5 5 4 22 -5 39 -20 l31 -28 -29 33 c-34
37 -33 36 -42 20z"/>
<path d="M8840 5146 c0 -2 8 -10 18 -17 15 -13 16 -12 3 4 -13 16 -21 21 -21
13z"/>
<path d="M8620 4921 c0 -5 5 -13 10 -16 6 -3 10 -2 10 4 0 5 -4 13 -10 16 -5
3 -10 2 -10 -4z"/>
<path d="M8963 4855 c0 -38 2 -53 4 -32 2 20 2 52 0 70 -2 17 -4 1 -4 -38z"/>
<path d="M8941 4724 c0 -11 3 -14 6 -6 3 7 2 16 -1 19 -3 4 -6 -2 -5 -13z"/>
<path d="M8390 4613 c-24 -10 -37 -27 -44 -60 -6 -24 -2 -37 17 -58 31 -36 77
-38 113 -4 22 20 25 30 20 62 -4 20 -3 37 1 36 23 -4 43 2 38 11 -3 6 -15 6
-30 0 -17 -6 -27 -5 -35 6 -12 14 -52 18 -80 7z"/>
<path d="M8580 4610 c0 -5 5 -10 10 -10 6 0 10 5 10 10 0 6 -4 10 -10 10 -5 0
-10 -4 -10 -10z"/>
<path d="M1790 4591 c-43 -82 54 -159 113 -89 22 26 22 71 -1 91 -27 24 -98
23 -112 -2z"/>
<path d="M8565 4390 l-20 -9 20 1 c11 0 31 4 45 8 l25 8 -25 0 c-14 0 -34 -3
-45 -8z"/>
<path d="M8379 4301 c-69 -69 3 -152 90 -105 47 25 54 68 17 107 -33 36 -70
35 -107 -2z"/>
<path d="M1786 4299 c-50 -40 -17 -119 51 -119 34 0 83 51 76 79 -7 28 -50 61
-78 61 -12 0 -34 -9 -49 -21z"/>
<path d="M1780 4020 c-25 -25 -26 -72 -2 -93 43 -39 132 -8 132 46 0 57 -88
89 -130 47z"/>
<path d="M8366 4018 c-38 -54 -8 -108 61 -108 65 0 95 55 57 108 -12 17 -25
22 -59 22 -34 0 -47 -5 -59 -22z"/>
<path d="M8405 3761 c-27 -11 -42 -30 -50 -63 -9 -34 31 -78 70 -78 53 0 96
82 67 127 -11 17 -62 25 -87 14z"/>
<path d="M1786 3739 c-33 -26 -34 -62 0 -96 20 -20 31 -24 57 -19 61 12 87 76
47 116 -26 26 -70 26 -104 -1z"/>
<path d="M1780 3450 c-45 -45 -11 -120 53 -120 49 0 69 19 71 67 0 22 -5 48
-13 57 -19 23 -86 21 -111 -4z"/>
<path d="M8390 3447 c-29 -15 -50 -51 -50 -89 0 -37 42 -68 92 -68 35 0 40 3
54 35 39 94 -14 163 -96 122z"/>
<path d="M1786 3109 c-51 -40 -29 -134 35 -154 44 -14 95 45 85 98 -13 70 -69
96 -120 56z"/>
<path d="M8375 3105 c-39 -38 -29 -109 20 -141 21 -14 30 -14 54 -5 40 17 55
50 47 105 -11 69 -73 90 -121 41z"/>
<path d="M8367 2783 c-6 -54 1 -103 14 -103 11 0 12 121 0 138 -5 9 -10 -3
-14 -35z"/>
<path d="M8600 2307 c0 -4 11 -19 25 -33 14 -14 22 -30 19 -36 -4 -7 -2 -8 5
-4 8 5 16 -3 24 -23 6 -17 17 -33 25 -36 9 -3 8 4 -5 25 -21 36 -92 118 -93
107z"/>
<path d="M8710 2146 c0 -9 10 -27 21 -39 l21 -22 -17 35 c-22 44 -25 47 -25
26z"/>
<path d="M8772 1995 c0 -16 2 -22 5 -12 2 9 2 23 0 30 -3 6 -5 -1 -5 -18z"/>
<path d="M7680 1946 c0 -2 8 -10 18 -17 15 -13 16 -12 3 4 -13 16 -21 21 -21
13z"/>
<path d="M8772 1905 c0 -16 2 -22 5 -12 2 9 2 23 0 30 -3 6 -5 -1 -5 -18z"/>
<path d="M7722 1884 c-12 -8 -27 -12 -32 -9 -16 10 -12 -23 6 -50 20 -31 62
-33 92 -5 29 27 28 40 -3 40 -15 0 -25 6 -25 14 0 23 -15 27 -38 10z"/>
<path d="M4473 1870 c-48 -19 -56 -78 -16 -110 39 -31 82 -24 106 18 17 29 18
37 7 57 -7 13 -26 29 -43 35 -16 5 -30 10 -31 9 -1 0 -11 -4 -23 -9z"/>
<path d="M5706 1858 c-9 -12 -17 -32 -17 -43 -1 -17 -2 -17 -6 -2 -5 20 -43
23 -43 3 0 -8 11 -17 25 -20 26 -7 25 -36 -1 -36 -8 0 -14 -9 -14 -20 0 -11 7
-20 15 -20 8 0 15 -9 15 -20 0 -13 7 -20 20 -20 11 0 20 5 20 10 0 6 12 10 26
10 26 0 54 20 54 40 0 6 -3 9 -7 7 -5 -3 -6 17 -4 45 2 36 -1 54 -15 69 -23
25 -49 24 -68 -3z m50 -130 c-10 -6 -22 -6 -26 -2 -5 5 3 10 18 11 22 1 24 0
8 -9z"/>
<path d="M5921 1861 c-26 -26 -27 -72 -2 -95 11 -10 37 -20 58 -23 54 -7 79
23 74 89 -1 21 -24 34 -73 43 -29 6 -40 3 -57 -14z"/>
<path d="M6724 1870 c-34 -11 -45 -38 -37 -84 10 -50 131 -68 166 -25 21 26
22 82 2 99 -20 16 -92 22 -131 10z"/>
<path d="M7309 1862 c-15 -13 -22 -30 -22 -52 0 -43 32 -70 85 -70 72 0 109
38 88 90 -20 49 -106 68 -151 32z"/>
<path d="M3023 1860 c-17 -7 -23 -18 -23 -43 0 -61 15 -70 105 -63 135 10 158
10 220 0 58 -10 262 -4 378 12 31 4 53 2 60 -5 7 -7 68 -11 173 -11 178 0 181
1 191 63 9 56 -10 60 -216 54 -234 -7 -642 -8 -766 -2 -55 3 -110 1 -122 -5z"/>
<path d="M4216 1854 c-25 -24 -20 -69 10 -93 35 -27 78 -27 104 1 22 24 27 77
8 96 -18 18 -103 15 -122 -4z"/>
<path d="M6220 1860 l-55 -5 -3 -41 c-3 -36 1 -45 25 -64 23 -18 36 -21 72
-16 53 7 61 17 61 77 0 54 -7 57 -100 49z"/>
<path d="M6480 1863 c-34 -6 -51 -31 -43 -62 10 -43 32 -61 75 -61 49 0 78 28
78 75 0 48 -32 62 -110 48z"/>
<path d="M6978 1859 c-36 -20 -15 -103 29 -120 39 -15 133 4 156 32 26 32 22
73 -8 87 -32 15 -153 15 -177 1z"/>
<path d="M8762 1850 c0 -14 2 -19 5 -12 2 6 2 18 0 25 -3 6 -5 1 -5 -13z"/>
<path d="M8736 1775 c-9 -26 -7 -32 5 -12 6 10 9 21 6 23 -2 3 -7 -2 -11 -11z"/>
<path d="M8025 1671 c-3 -5 -2 -12 3 -15 5 -3 9 1 9 9 0 17 -3 19 -12 6z"/>
<path d="M8660 1649 c0 -5 5 -7 10 -4 6 3 10 8 10 11 0 2 -4 4 -10 4 -5 0 -10
-5 -10 -11z"/>
<path d="M8124 1572 c4 -6 22 -19 39 -28 32 -16 32 -16 12 3 -11 11 -22 19
-24 17 -2 -2 -11 2 -19 9 -13 10 -14 9 -8 -1z"/>
<path d="M5807 1563 c-4 -3 -7 -11 -7 -17 0 -6 5 -5 12 2 6 6 9 14 7 17 -3 3
-9 2 -12 -2z"/>
<path d="M2655 1545 c-25 -12 -26 -14 -5 -9 14 4 29 10 35 15 12 12 5 11 -30
-6z"/>
<path d="M2548 1513 c6 -2 18 -2 25 0 6 3 1 5 -13 5 -14 0 -19 -2 -12 -5z"/>
<path d="M8263 1506 c0 -8 8 -17 18 -19 15 -4 16 -2 6 14 -14 23 -24 24 -24 5z"/>
<path d="M5518 1303 c7 -3 16 -2 19 1 4 3 -2 6 -13 5 -11 0 -14 -3 -6 -6z"/>
<path d="M5453 1293 c9 -2 25 -2 35 0 9 3 1 5 -18 5 -19 0 -27 -2 -17 -5z"/>
</g>
</svg>
